<svg version="1.1" xmlns="http://www.w3.org/2000/svg" viewBox="0 0 512 512"><g><path class="st0" d="M425.793,215.209c-12.505,0-22.642,10.136-22.642,22.63v15.163l-62.255,12.053c-22.642,0-50.94-14.16-84.892-14.16c-33.964,0-62.259,14.16-84.9,14.16l-62.259-12.053v-15.163c0-12.493-10.133-22.63-22.637-22.63c-12.505,0-22.638,10.136-22.638,22.63v70.756c0,12.493,10.132,22.63,22.638,22.63c12.504,0,22.637-10.137,22.637-22.63v-13.338c18.088,3.783,43.019,8.959,59.43,12.244c28.303,5.657,36.788,48.104,87.729,48.104c50.932,0,59.422-42.446,87.725-48.104c16.408-3.285,41.335-8.461,59.422-12.244v13.338c0,12.493,10.137,22.63,22.642,22.63c12.504,0,22.637-10.137,22.637-22.63v-70.756C448.43,225.345,438.298,215.209,425.793,215.209z"/><rect y="176.113" class="st0" width="172.414" height="29.556"/><rect x="339.582" y="176.113" class="st0" width="172.418" height="29.556"/><path class="st0" d="M86.208,156.397c-7.143,0-12.928,5.79-12.928,12.94h25.86C99.139,162.186,93.346,156.397,86.208,156.397z"/><path class="st0" d="M425.793,156.397c-7.146,0-12.932,5.79-12.932,12.94h25.86C438.72,162.186,432.927,156.397,425.793,156.397z"/></g></svg>
