<svg xmlns="http://www.w3.org/2000/svg" viewBox="0 0 512 512"><path class="st0" d="M506.031,134.472c-5.769-13.625-15.363-25.163-27.45-33.335c-12.087-8.172-26.759-12.968-42.404-12.968H382.94c-31.897,0-62.506,12.668-85.068,35.247l-80.262,80.245c0.906-7.656,1.646-13.941,2.112-17.681c2.378-19.029-2.378-28.538-8.321-34.499c-7.931-7.931-20.218-14.266-39.246-14.266c-19.028,0-31.323,6.334-39.254,14.266c-5.943,5.96-10.698,15.47-8.321,34.499c2.053,16.484,9.484,82.091,11.422,99.299l-19.22,19.22c-0.45,0.458-1.064,0.706-1.696,0.706h-39.27c-10.417,0-20.433,2.121-29.511,5.969c-13.625,5.761-25.172,15.362-33.344,27.45C4.788,350.703-0.008,365.375,0,381.02c-0.008,10.424,2.12,20.442,5.969,29.52c5.76,13.625,15.354,25.172,27.449,33.351c12.071,8.164,26.759,12.96,42.397,12.952h53.244c31.897,0,62.498-12.661,85.068-35.23l1.422-1.43l94.07-94.062l85.599-85.608c0.45-0.448,1.048-0.706,1.688-0.706h39.271c10.424,0,20.441-2.12,29.519-5.96c13.625-5.769,25.172-15.363,33.344-27.45c8.172-12.078,12.969-26.759,12.96-42.404C512,153.575,509.88,143.55,506.031,134.472z M473.178,179.611c-3.043,7.183-8.147,13.343-14.573,17.674c-6.418,4.331-14.049,6.841-22.428,6.841h-39.271c-10.1,0-19.777,4.024-26.918,11.157l-85.599,85.607l-94.087,94.07l-1.405,1.422c-15.878,15.878-37.392,24.781-59.838,24.79H75.815c-5.587-0.009-10.824-1.131-15.62-3.159c-7.166-3.026-13.334-8.139-17.674-14.556c-4.331-6.425-6.833-14.057-6.842-22.436c0-5.587,1.123-10.824,3.143-15.612c3.034-7.174,8.146-13.35,14.572-17.682c6.418-4.331,14.049-6.834,22.42-6.842h39.27c10.101,0,19.786-4.007,26.926-11.156l85.6-85.607l95.492-95.476c15.87-15.878,37.392-24.797,59.838-24.797h53.237c5.594,0,10.831,1.13,15.62,3.151c7.183,3.034,13.351,8.155,17.682,14.564c4.331,6.434,6.833,14.058,6.842,22.429C476.312,169.578,475.198,174.823,473.178,179.611z"/><path class="st0" d="M172.154,124.131c19.037,0,34.483-15.446,34.483-34.491s-15.446-34.483-34.483-34.483c-19.053,0-34.49,15.438-34.49,34.483S153.102,124.131,172.154,124.131z"/></svg>
