<svg xmlns="http://www.w3.org/2000/svg" viewBox="0 0 512 512"><path d="m182.1 85.89c-23.34-5.956-37.42-29.72-31.45-53.07 5.957-23.33 29.72-37.41 53.07-31.45 23.34 5.97 37.41 29.72 31.45 53.06-5.963 23.35-29.73 37.42-53.07 31.46z"/><path d="m141.7 198.2 3.581 37.57c-5.863 3.825-11.34 8.197-16.29 13.13-18.22 18.24-29.43 43.26-29.44 71.07 7e-3 27.81 11.22 52.82 29.44 71.07 18.24 18.22 43.27 29.42 71.08 29.44 27.81-0.0142 52.83-11.22 71.08-29.44 12.94-12.96 22.25-29.38 26.62-47.75l19.72 43.48c-23.27 40.8-67.08 68.35-117.4 68.36-74.66-0.0142-135.2-60.51-135.2-135.2 8e-3 -53.72 31.42-99.96 76.81-121.8z"/><path d="m229.6 311.7c-38.2-0.4196-56.25-16.46-60.17-53.4l-11.08-116c-1.787-19.56 10.01-36.73 29.58-38.51 12.54-1.15 26 5.198 33.9 13.53l54.49 53.62 57.01 4.793c9.166 0.7716 16.21 8.427 16.21 17.62v1.063c0 9.761-7.921 17.68-17.68 17.68h-67.24l-30.58-22.57 5.111 56.58 74.48 5.435c21.62 0.8533 31.15 9.517 39.28 28.93l35.15 96.56c5.322 11.83 0.0409 25.76-11.81 31.08-11.86 5.327-25.78 0.0409-31.09-11.8l-39.62-84.59h-75.95z"/><path d="m512 426v86h-512z"/></svg>
